<mxfile host="app.diagrams.net" agent="Mozilla/5.0 (Windows NT 10.0; Win64; x64) AppleWebKit/537.36 (KHTML, like Gecko) Chrome/140.0.0.0 Safari/537.36 Edg/140.0.0.0" version="28.2.3">
  <diagram name="Page-1" id="d-BCWqzh6W33TrTbSgbA">
    <mxGraphModel dx="1034" dy="570" grid="0" gridSize="10" guides="0" tooltips="1" connect="1" arrows="1" fold="1" page="1" pageScale="1" pageWidth="850" pageHeight="1100" background="light-dark(#FFFFFF,#0000CC)" math="0" shadow="0">
      <root>
        <mxCell id="0" />
        <mxCell id="1" parent="0" />
        <mxCell id="cHAQ1yPUDw0YZ4aky7Xc-16" value="" style="edgeStyle=orthogonalEdgeStyle;rounded=0;orthogonalLoop=1;jettySize=auto;html=1;" edge="1" parent="1" source="cHAQ1yPUDw0YZ4aky7Xc-2" target="cHAQ1yPUDw0YZ4aky7Xc-5">
          <mxGeometry relative="1" as="geometry" />
        </mxCell>
        <mxCell id="cHAQ1yPUDw0YZ4aky7Xc-17" value="" style="edgeStyle=orthogonalEdgeStyle;rounded=0;orthogonalLoop=1;jettySize=auto;html=1;labelBackgroundColor=light-dark(#FFFFFF,#3333FF);fontColor=light-dark(#000000,#FFFFFF);" edge="1" parent="1" source="cHAQ1yPUDw0YZ4aky7Xc-2" target="cHAQ1yPUDw0YZ4aky7Xc-5">
          <mxGeometry relative="1" as="geometry" />
        </mxCell>
        <mxCell id="cHAQ1yPUDw0YZ4aky7Xc-2" value="meshoo logo" style="ellipse;whiteSpace=wrap;html=1;aspect=fixed;gradientColor=light-dark(#000000,#FF0080);" vertex="1" parent="1">
          <mxGeometry x="60" y="10" width="140" height="140" as="geometry" />
        </mxCell>
        <mxCell id="cHAQ1yPUDw0YZ4aky7Xc-18" value="" style="edgeStyle=orthogonalEdgeStyle;rounded=0;orthogonalLoop=1;jettySize=auto;html=1;" edge="1" parent="1" source="cHAQ1yPUDw0YZ4aky7Xc-5" target="cHAQ1yPUDw0YZ4aky7Xc-6">
          <mxGeometry relative="1" as="geometry" />
        </mxCell>
        <mxCell id="cHAQ1yPUDw0YZ4aky7Xc-5" value="meshoo installation" style="rounded=0;whiteSpace=wrap;html=1;fillColor=#fa6800;fontColor=#000000;strokeColor=#C73500;" vertex="1" parent="1">
          <mxGeometry x="40" y="200" width="180" height="60" as="geometry" />
        </mxCell>
        <mxCell id="cHAQ1yPUDw0YZ4aky7Xc-19" value="" style="edgeStyle=orthogonalEdgeStyle;rounded=0;orthogonalLoop=1;jettySize=auto;html=1;" edge="1" parent="1" source="cHAQ1yPUDw0YZ4aky7Xc-6" target="cHAQ1yPUDw0YZ4aky7Xc-8">
          <mxGeometry relative="1" as="geometry" />
        </mxCell>
        <mxCell id="cHAQ1yPUDw0YZ4aky7Xc-6" value="Login Credentials" style="ellipse;whiteSpace=wrap;html=1;fillColor=#a0522d;fontColor=#ffffff;strokeColor=#6D1F00;" vertex="1" parent="1">
          <mxGeometry x="70" y="310" width="120" height="110" as="geometry" />
        </mxCell>
        <mxCell id="cHAQ1yPUDw0YZ4aky7Xc-20" value="" style="edgeStyle=orthogonalEdgeStyle;rounded=0;orthogonalLoop=1;jettySize=auto;html=1;" edge="1" parent="1" source="cHAQ1yPUDw0YZ4aky7Xc-8" target="cHAQ1yPUDw0YZ4aky7Xc-9">
          <mxGeometry relative="1" as="geometry" />
        </mxCell>
        <mxCell id="cHAQ1yPUDw0YZ4aky7Xc-8" value="Number Verification" style="rhombus;whiteSpace=wrap;html=1;fillColor=#fad9d5;strokeColor=#ae4132;" vertex="1" parent="1">
          <mxGeometry x="70" y="470" width="120" height="100" as="geometry" />
        </mxCell>
        <mxCell id="cHAQ1yPUDw0YZ4aky7Xc-21" value="" style="edgeStyle=orthogonalEdgeStyle;rounded=0;orthogonalLoop=1;jettySize=auto;html=1;" edge="1" parent="1" source="cHAQ1yPUDw0YZ4aky7Xc-9" target="cHAQ1yPUDw0YZ4aky7Xc-10">
          <mxGeometry relative="1" as="geometry" />
        </mxCell>
        <mxCell id="cHAQ1yPUDw0YZ4aky7Xc-9" value="CHECK OTP" style="shape=parallelogram;perimeter=parallelogramPerimeter;whiteSpace=wrap;html=1;fixedSize=1;fillColor=#fff2cc;gradientColor=#ffd966;strokeColor=#d6b656;" vertex="1" parent="1">
          <mxGeometry x="70" y="630" width="120" height="60" as="geometry" />
        </mxCell>
        <mxCell id="cHAQ1yPUDw0YZ4aky7Xc-22" value="" style="edgeStyle=orthogonalEdgeStyle;rounded=0;orthogonalLoop=1;jettySize=auto;html=1;" edge="1" parent="1" source="cHAQ1yPUDw0YZ4aky7Xc-10" target="cHAQ1yPUDw0YZ4aky7Xc-12">
          <mxGeometry relative="1" as="geometry" />
        </mxCell>
        <mxCell id="cHAQ1yPUDw0YZ4aky7Xc-10" value="ABOUT&lt;div&gt;YOU&lt;/div&gt;" style="rhombus;whiteSpace=wrap;html=1;fillColor=#cce5ff;strokeColor=#36393d;" vertex="1" parent="1">
          <mxGeometry x="70" y="750" width="120" height="80" as="geometry" />
        </mxCell>
        <mxCell id="cHAQ1yPUDw0YZ4aky7Xc-24" value="" style="edgeStyle=orthogonalEdgeStyle;rounded=0;orthogonalLoop=1;jettySize=auto;html=1;" edge="1" parent="1" source="cHAQ1yPUDw0YZ4aky7Xc-12" target="cHAQ1yPUDw0YZ4aky7Xc-23">
          <mxGeometry relative="1" as="geometry" />
        </mxCell>
        <mxCell id="cHAQ1yPUDw0YZ4aky7Xc-12" value="SELECT&amp;nbsp;&lt;div&gt;LANGUAGE&lt;/div&gt;" style="shape=parallelogram;perimeter=parallelogramPerimeter;whiteSpace=wrap;html=1;fixedSize=1;fillColor=#eeeeee;strokeColor=#36393d;" vertex="1" parent="1">
          <mxGeometry x="70" y="880" width="120" height="60" as="geometry" />
        </mxCell>
        <mxCell id="cHAQ1yPUDw0YZ4aky7Xc-23" value="LETS START YOUR&amp;nbsp;&lt;div&gt;SHOPPING&lt;/div&gt;" style="ellipse;whiteSpace=wrap;html=1;fillColor=#cdeb8b;strokeColor=#36393d;" vertex="1" parent="1">
          <mxGeometry x="70" y="1000" width="120" height="80" as="geometry" />
        </mxCell>
      </root>
    </mxGraphModel>
  </diagram>
</mxfile>
